<svg width="32" height="32" viewBox="0 0 32 32" fill="none" xmlns="http://www.w3.org/2000/svg">
<path fill-rule="evenodd" clip-rule="evenodd" d="M16 0C11.6547 0 11.1093 0.0186667 9.40267 0.096C6.92933 0.209333 4.47333 0.897333 2.68533 2.68533C0.890667 4.48 0.209333 6.93067 0.096 9.40267C0.0186667 11.1093 0 11.6547 0 16C0 20.3453 0.0186667 20.8907 0.096 22.5973C0.209333 25.068 0.9 27.5307 2.68533 29.3147C4.47867 31.108 6.93333 31.7907 9.40267 31.904C11.1093 31.9813 11.6547 32 16 32C20.3453 32 20.8907 31.9813 22.5973 31.904C25.0693 31.7907 27.528 31.1013 29.3147 29.3147C31.1107 27.5187 31.7907 25.0693 31.904 22.5973C31.9813 20.8907 32 20.3453 32 16C32 11.6547 31.9813 11.1093 31.904 9.40267C31.7907 6.92933 31.1013 4.472 29.3147 2.68533C27.524 0.894666 25.0627 0.208 22.5973 0.096C20.8907 0.0186667 20.3453 0 16 0ZM11.6702 24C16.7569 24 23.5102 17.2533 23.5102 12.16V12.1533C23.5102 11.04 23.0902 10 22.2902 9.20667L21.5902 8.6C20.7835 7.79333 19.4769 7.79333 18.6702 8.6C18.6502 8.62 17.4169 10.2267 17.4169 10.2267C16.6502 11.02 16.6502 12.2867 17.4169 13.08L18.1902 14.0533C17.2169 16.26 15.7035 17.78 13.5702 18.6867L12.5969 17.9067C11.8035 17.1467 10.5435 17.1467 9.74354 17.9067C9.74354 17.9067 8.13687 19.14 8.11687 19.16C7.3102 19.9667 7.3102 21.2733 8.08354 22.0467L8.7502 22.8133C9.51687 23.58 10.5569 24 11.6702 24Z" fill="black"/>
</svg>
