<svg width="32" height="32" viewBox="0 0 32 32" fill="none" xmlns="http://www.w3.org/2000/svg">
<path fill-rule="evenodd" clip-rule="evenodd" d="M9.40267 0.096C11.1093 0.0186667 11.6547 0 16 0C20.3453 0 20.8907 0.0186667 22.5973 0.096C25.0627 0.208 27.524 0.894666 29.3147 2.68533C31.1013 4.472 31.7907 6.92933 31.904 9.40267C31.9813 11.1093 32 11.6547 32 16C32 20.3453 31.9813 20.8907 31.904 22.5973C31.7907 25.0693 31.1107 27.5187 29.3147 29.3147C27.528 31.1013 25.0693 31.7907 22.5973 31.904C20.8907 31.9813 20.3453 32 16 32C11.6547 32 11.1093 31.9813 9.40267 31.904C6.93333 31.7907 4.47867 31.108 2.68533 29.3147C0.9 27.5307 0.209333 25.068 0.096 22.5973C0.0186667 20.8907 0 20.3453 0 16C0 11.6547 0.0186667 11.1093 0.096 9.40267C0.209333 6.93067 0.890667 4.48 2.68533 2.68533C4.47333 0.897333 6.92933 0.209333 9.40267 0.096ZM21.2917 10.7513H18.4167C18.1625 10.7513 17.9187 10.8523 17.739 11.032C17.5593 11.2117 17.4583 11.4555 17.4583 11.7096V14.5846H20.065C20.2128 14.5803 20.3595 14.6102 20.4938 14.672C20.6281 14.7338 20.7463 14.8259 20.8391 14.941C20.9319 15.056 20.9968 15.191 21.0288 15.3354C21.0607 15.4797 21.0589 15.6295 21.0233 15.773L20.5442 17.6896C20.4917 17.9023 20.368 18.0905 20.1936 18.223C20.0192 18.3555 19.8048 18.4243 19.5858 18.418H17.4583V25.1263C17.4583 25.3805 17.3574 25.6242 17.1776 25.8039C16.9979 25.9837 16.7542 26.0846 16.5 26.0846H14.5833C14.3292 26.0846 14.0854 25.9837 13.9057 25.8039C13.726 25.6242 13.625 25.3805 13.625 25.1263V18.418H11.7083C11.4542 18.418 11.2104 18.317 11.0307 18.1373C10.851 17.9576 10.75 17.7138 10.75 17.4596V15.543C10.75 15.2888 10.851 15.045 11.0307 14.8653C11.2104 14.6856 11.4542 14.5846 11.7083 14.5846H13.625V11.7096C13.625 10.4388 14.1298 9.22003 15.0284 8.32141C15.9271 7.4228 17.1458 6.91797 18.4167 6.91797H21.2917C21.5458 6.91797 21.7896 7.01894 21.9693 7.19866C22.149 7.37838 22.25 7.62214 22.25 7.8763V9.79297C22.25 10.0471 22.149 10.2909 21.9693 10.4706C21.7896 10.6503 21.5458 10.7513 21.2917 10.7513Z" fill="black"/>
</svg>
