<svg width="32" height="32" viewBox="0 0 32 32" fill="none" xmlns="http://www.w3.org/2000/svg">
<path d="M16 21.3333C13.0547 21.3333 10.6667 18.9453 10.6667 16C10.6667 13.0547 13.0547 10.6667 16 10.6667C18.9453 10.6667 21.3333 13.0547 21.3333 16C21.3333 18.9453 18.9453 21.3333 16 21.3333Z" fill="black"/>
<path fill-rule="evenodd" clip-rule="evenodd" d="M9.40267 0.096C11.1093 0.0186667 11.6547 0 16 0C20.3453 0 20.8907 0.0186667 22.5973 0.096C25.0627 0.208 27.524 0.894666 29.3147 2.68533C31.1013 4.472 31.7907 6.92933 31.904 9.40267C31.9813 11.1093 32 11.6547 32 16C32 20.3453 31.9813 20.8907 31.904 22.5973C31.7907 25.0693 31.1107 27.5187 29.3147 29.3147C27.528 31.1013 25.0693 31.7907 22.5973 31.904C20.8907 31.9813 20.3453 32 16 32C11.6547 32 11.1093 31.9813 9.40267 31.904C6.93333 31.7907 4.47867 31.108 2.68533 29.3147C0.9 27.5307 0.209333 25.068 0.096 22.5973C0.0186667 20.8907 0 20.3453 0 16C0 11.6547 0.0186667 11.1093 0.096 9.40267C0.209333 6.93067 0.890667 4.48 2.68533 2.68533C4.47333 0.897333 6.92933 0.209333 9.40267 0.096ZM16 7.784C11.4627 7.784 7.784 11.4627 7.784 16C7.784 20.5373 11.4627 24.216 16 24.216C20.5373 24.216 24.216 20.5373 24.216 16C24.216 11.4627 20.5373 7.784 16 7.784ZM26.4613 7.45867C26.4613 8.51905 25.6017 9.37867 24.5413 9.37867C23.4809 9.37867 22.6213 8.51905 22.6213 7.45867C22.6213 6.39828 23.4809 5.53867 24.5413 5.53867C25.6017 5.53867 26.4613 6.39828 26.4613 7.45867Z" fill="black"/>
</svg>
