<svg width="108" height="65" viewBox="0 0 108 65" fill="none" xmlns="http://www.w3.org/2000/svg">
<mask id="mask0_1165_885" style="mask-type:luminance" maskUnits="userSpaceOnUse" x="12" y="3" width="34" height="54">
<path d="M19.4766 53.0933C13.9903 50.4432 14.4487 38.1379 20.5011 25.609C26.5531 13.0801 36.2987 3.11441 41.7854 5.76453C44.2834 6.97109 45.1535 12.1405 45.2197 16.4602C45.8748 10.1585 44.6799 5.40228 41.523 3.87748C35.6847 1.05751 25.3607 10.3465 18.4633 24.6248C11.5659 38.9031 10.7072 52.7642 16.5456 55.5841C19.7024 57.109 24.1711 55.0883 28.7001 50.6578C25.2754 53.2913 21.9749 54.2999 19.4766 53.0933Z" fill="white"/>
</mask>
<g mask="url(#mask0_1165_885)">
<path d="M19.4766 53.0933C13.9903 50.4432 14.4487 38.1379 20.5011 25.609C26.5531 13.0801 36.2987 3.11441 41.7854 5.76453C44.2834 6.97109 45.1535 12.1405 45.2197 16.4602C45.8748 10.1585 44.6799 5.40228 41.523 3.87748C35.6847 1.05751 25.3607 10.3465 18.4633 24.6248C11.5659 38.9031 10.7072 52.7642 16.5456 55.5841C19.7024 57.109 24.1711 55.0883 28.7001 50.6578C25.2754 53.2913 21.9749 54.2999 19.4766 53.0933Z" fill="#F36717"/>
</g>
<mask id="mask1_1165_885" style="mask-type:luminance" maskUnits="userSpaceOnUse" x="25" y="28" width="9" height="9">
<path d="M33.3974 31.3209C34.1237 33.4598 32.9783 35.782 30.8394 36.5083C28.7008 37.2345 26.3781 36.0895 25.6519 33.9503C24.9256 31.8116 26.071 29.4892 28.2099 28.7631C30.3488 28.0368 32.6714 29.1822 33.3974 31.3209Z" fill="white"/>
</mask>
<g mask="url(#mask1_1165_885)">
<path d="M33.3974 31.3209C34.1237 33.4598 32.9783 35.782 30.8394 36.5083C28.7008 37.2345 26.3781 36.0895 25.6519 33.9503C24.9256 31.8116 26.071 29.4892 28.2099 28.7631C30.3488 28.0368 32.6714 29.1822 33.3974 31.3209Z" fill="#F36717"/>
</g>
<mask id="mask2_1165_885" style="mask-type:luminance" maskUnits="userSpaceOnUse" x="38" y="31" width="22" height="25">
<path d="M42.5643 55.0176C41.5816 55.0176 40.5977 54.9501 39.6824 54.2035C38.5977 53.2883 38.5977 52.3393 38.5977 51.2206V34.9476C38.5977 34.0324 38.7335 33.0497 39.615 32.2356C40.4965 31.4212 41.649 31.2867 42.4969 31.2867H59.55V37.0502H47.8193C47.3788 37.0502 46.904 37.151 46.6333 37.3892C46.2603 37.6936 46.2603 38.236 46.2603 38.5414V40.3384H59.2107V45.4908H46.2603V48.0681C46.2603 48.5424 46.4301 48.8139 46.5997 48.9487C46.9724 49.2881 47.5823 49.2544 48.0575 49.2544H59.6522V55.0176H42.5643Z" fill="white"/>
</mask>
<g mask="url(#mask2_1165_885)">
<path d="M42.5643 55.0176C41.5816 55.0176 40.5977 54.9501 39.6824 54.2035C38.5977 53.2883 38.5977 52.3393 38.5977 51.2206V34.9476C38.5977 34.0324 38.7335 33.0497 39.615 32.2356C40.4965 31.4212 41.649 31.2867 42.4969 31.2867H59.55V37.0502H47.8193C47.3788 37.0502 46.904 37.151 46.6333 37.3892C46.2603 37.6936 46.2603 38.236 46.2603 38.5414V40.3384H59.2107V45.4908H46.2603V48.0681C46.2603 48.5424 46.4301 48.8139 46.5997 48.9487C46.9724 49.2881 47.5823 49.2544 48.0575 49.2544H59.6522V55.0176H42.5643Z" fill="black"/>
</g>
<mask id="mask3_1165_885" style="mask-type:luminance" maskUnits="userSpaceOnUse" x="61" y="31" width="25" height="25">
<path d="M85.0799 51.4575C85.0799 53.0176 84.334 53.8654 83.9278 54.2035C83.3165 54.7123 82.3679 55.0176 81.3836 55.0176H70.1619C68.2299 55.0176 65.7211 54.373 64.1946 53.0176C61.5846 50.7118 61.3477 46.406 61.3477 43.2876C61.3477 39.524 61.652 35.1511 64.7372 32.9139C66.907 31.3204 70.0607 31.2867 70.7041 31.2867H82.162V36.9141H74.1632C72.2306 36.9141 70.874 37.5924 70.0607 38.8807C69.2463 40.2023 69.2126 41.8298 69.2126 43.1515C69.2126 44.4397 69.2463 46.1019 70.0945 47.491C70.9423 48.8139 72.1283 49.1182 73.4165 49.1182H75.7221C76.1286 49.1182 76.6374 49.0845 77.0105 48.7455C77.3832 48.3725 77.4181 47.8303 77.4181 47.3561V42.4745H85.0799V51.4575Z" fill="white"/>
</mask>
<g mask="url(#mask3_1165_885)">
<path d="M85.0799 51.4575C85.0799 53.0176 84.334 53.8654 83.9278 54.2035C83.3165 54.7123 82.3679 55.0176 81.3836 55.0176H70.1619C68.2299 55.0176 65.7211 54.373 64.1946 53.0176C61.5846 50.7118 61.3477 46.406 61.3477 43.2876C61.3477 39.524 61.652 35.1511 64.7372 32.9139C66.907 31.3204 70.0607 31.2867 70.7041 31.2867H82.162V36.9141H74.1632C72.2306 36.9141 70.874 37.5924 70.0607 38.8807C69.2463 40.2023 69.2126 41.8298 69.2126 43.1515C69.2126 44.4397 69.2463 46.1019 70.0945 47.491C70.9423 48.8139 72.1283 49.1182 73.4165 49.1182H75.7221C76.1286 49.1182 76.6374 49.0845 77.0105 48.7455C77.3832 48.3725 77.4181 47.8303 77.4181 47.3561V42.4745H85.0799V51.4575Z" fill="black"/>
</g>
<mask id="mask4_1165_885" style="mask-type:luminance" maskUnits="userSpaceOnUse" x="84" y="31" width="24" height="25">
<path d="M92.6516 55.0176V37.1847H84.1757V31.2867H107.998V37.1847H100.313V55.0176H92.6516Z" fill="white"/>
</mask>
<g mask="url(#mask4_1165_885)">
<path d="M92.6516 55.0176V37.1847H84.1757V31.2867H107.998V37.1847H100.313V55.0176H92.6516Z" fill="black"/>
</g>
<mask id="mask5_1165_885" style="mask-type:luminance" maskUnits="userSpaceOnUse" x="11" y="0" width="24" height="51">
<path d="M34.7693 47.9996C29.737 45.2073 23.8808 38.1081 19.736 29.8152C13.6731 17.6858 12.0022 5.25317 17.4523 2.52941C19.934 1.28912 24.3955 2.59125 27.8119 5.09014C23.2909 0.856701 18.8384 -1.01768 15.7025 0.549557C9.90285 3.44839 10.8023 17.0038 17.7115 30.8269C22.6281 40.663 29.2617 47.9792 34.7693 50.3398V47.9996Z" fill="white"/>
</mask>
<g mask="url(#mask5_1165_885)">
<path d="M34.7693 47.9996C29.737 45.2073 23.8808 38.1081 19.736 29.8152C13.6731 17.6858 12.0022 5.25317 17.4523 2.52941C19.934 1.28912 24.3955 2.59125 27.8119 5.09014C23.2909 0.856701 18.8384 -1.01768 15.7025 0.549557C9.90285 3.44839 10.8023 17.0038 17.7115 30.8269C22.6281 40.663 29.2617 47.9792 34.7693 50.3398V47.9996Z" fill="#F36717"/>
</g>
<mask id="mask6_1165_885" style="mask-type:luminance" maskUnits="userSpaceOnUse" x="0" y="19" width="62" height="31">
<path d="M28.0316 25.7569C42.9334 20.9017 58.1264 23.4096 60.0138 29.2028C60.0844 29.4199 62.3037 26.5487 61.7172 24.7485C59.7089 18.5842 44.3133 18.0723 27.3303 23.6051C10.3478 29.1379 -1.79135 38.6205 0.217345 44.7848C1.30335 48.1182 6.30776 49.7952 13.3565 49.7612C8.62113 49.2651 5.3263 47.6743 4.46672 45.0366C2.57927 39.2437 13.1297 30.6117 28.0316 25.7569Z" fill="white"/>
</mask>
<g mask="url(#mask6_1165_885)">
<path d="M28.0316 25.7569C42.9334 20.9017 58.1264 23.4096 60.0138 29.2028C60.0844 29.4199 62.3037 26.5487 61.7172 24.7485C59.7089 18.5842 44.3133 18.0723 27.3303 23.6051C10.3478 29.1379 -1.79135 38.6205 0.217345 44.7848C1.30335 48.1182 6.30776 49.7952 13.3565 49.7612C8.62113 49.2651 5.3263 47.6743 4.46672 45.0366C2.57927 39.2437 13.1297 30.6117 28.0316 25.7569Z" fill="#F36717"/>
</g>
</svg>
