<svg width="108" height="65" viewBox="0 0 108 65" fill="none" xmlns="http://www.w3.org/2000/svg">
<g clip-path="url(#clip0_1178_5507)">
<mask id="mask0_1178_5507" style="mask-type:luminance" maskUnits="userSpaceOnUse" x="12" y="3" width="34" height="54">
<path d="M19.4766 53.0913C13.9903 50.4412 14.4487 38.136 20.5011 25.6071C26.5531 13.0781 36.2987 3.11245 41.7854 5.76257C44.2834 6.96914 45.1535 12.1385 45.2197 16.4582C45.8748 10.1565 44.6799 5.40032 41.523 3.87553C35.6847 1.05556 25.3607 10.3446 18.4633 24.6229C11.5659 38.9012 10.7072 52.7623 16.5456 55.5822C19.7024 57.107 24.1711 55.0863 28.7001 50.6559C25.2754 53.2893 21.9749 54.2979 19.4766 53.0913Z" fill="white"/>
</mask>
<g mask="url(#mask0_1178_5507)">
<path d="M19.4766 53.0913C13.9903 50.4412 14.4487 38.136 20.5011 25.6071C26.5531 13.0781 36.2987 3.11245 41.7854 5.76257C44.2834 6.96914 45.1535 12.1385 45.2197 16.4582C45.8748 10.1565 44.6799 5.40032 41.523 3.87553C35.6847 1.05556 25.3607 10.3446 18.4633 24.6229C11.5659 38.9012 10.7072 52.7623 16.5456 55.5822C19.7024 57.107 24.1711 55.0863 28.7001 50.6559C25.2754 53.2893 21.9749 54.2979 19.4766 53.0913Z" fill="#F36717"/>
</g>
<mask id="mask1_1178_5507" style="mask-type:luminance" maskUnits="userSpaceOnUse" x="25" y="28" width="9" height="9">
<path d="M33.3974 31.3209C34.1237 33.4598 32.9783 35.782 30.8394 36.5083C28.7008 37.2345 26.3781 36.0895 25.6519 33.9503C24.9256 31.8116 26.071 29.4892 28.2099 28.7631C30.3488 28.0368 32.6714 29.1822 33.3974 31.3209Z" fill="white"/>
</mask>
<g mask="url(#mask1_1178_5507)">
<path d="M33.3974 31.3209C34.1237 33.4598 32.9783 35.782 30.8394 36.5083C28.7008 37.2345 26.3781 36.0895 25.6519 33.9503C24.9256 31.8116 26.071 29.4892 28.2099 28.7631C30.3488 28.0368 32.6714 29.1822 33.3974 31.3209Z" fill="#F36717"/>
</g>
<mask id="mask2_1178_5507" style="mask-type:luminance" maskUnits="userSpaceOnUse" x="38" y="31" width="22" height="25">
<path d="M42.5643 55.0156C41.5816 55.0156 40.5977 54.9482 39.6824 54.2016C38.5977 53.2863 38.5977 52.3374 38.5977 51.2186V34.9456C38.5977 34.0304 38.7335 33.0477 39.615 32.2336C40.4965 31.4193 41.649 31.2847 42.4969 31.2847H59.55V37.0483H47.8193C47.3788 37.0483 46.904 37.1491 46.6333 37.3872C46.2603 37.6916 46.2603 38.2341 46.2603 38.5394V40.3364H59.2107V45.4888H46.2603V48.0662C46.2603 48.5404 46.4301 48.8119 46.5997 48.9468C46.9724 49.2861 47.5823 49.2524 48.0575 49.2524H59.6522V55.0156H42.5643Z" fill="white"/>
</mask>
<g mask="url(#mask2_1178_5507)">
<path d="M42.5643 55.0156C41.5816 55.0156 40.5977 54.9482 39.6824 54.2016C38.5977 53.2863 38.5977 52.3374 38.5977 51.2186V34.9456C38.5977 34.0304 38.7335 33.0477 39.615 32.2336C40.4965 31.4193 41.649 31.2847 42.4969 31.2847H59.55V37.0483H47.8193C47.3788 37.0483 46.904 37.1491 46.6333 37.3872C46.2603 37.6916 46.2603 38.2341 46.2603 38.5394V40.3364H59.2107V45.4888H46.2603V48.0662C46.2603 48.5404 46.4301 48.8119 46.5997 48.9468C46.9724 49.2861 47.5823 49.2524 48.0575 49.2524H59.6522V55.0156H42.5643Z" fill="white"/>
</g>
<mask id="mask3_1178_5507" style="mask-type:luminance" maskUnits="userSpaceOnUse" x="61" y="31" width="25" height="25">
<path d="M85.0799 51.4556C85.0799 53.0157 84.334 53.8635 83.9278 54.2016C83.3165 54.7103 82.3679 55.0156 81.3836 55.0156H70.1619C68.2299 55.0156 65.7211 54.371 64.1946 53.0157C61.5846 50.7098 61.3477 46.404 61.3477 43.2856C61.3477 39.522 61.652 35.1492 64.7372 32.912C66.907 31.3185 70.0607 31.2847 70.7041 31.2847H82.162V36.9121H74.1632C72.2306 36.9121 70.874 37.5905 70.0607 38.8787C69.2463 40.2003 69.2126 41.8279 69.2126 43.1496C69.2126 44.4378 69.2463 46.1 70.0945 47.489C70.9423 48.8119 72.1283 49.1163 73.4165 49.1163H75.7221C76.1286 49.1163 76.6374 49.0826 77.0105 48.7436C77.3832 48.3706 77.4181 47.8283 77.4181 47.3542V42.4725H85.0799V51.4556Z" fill="white"/>
</mask>
<g mask="url(#mask3_1178_5507)">
<path d="M85.0799 51.4556C85.0799 53.0157 84.334 53.8635 83.9278 54.2016C83.3165 54.7103 82.3679 55.0156 81.3836 55.0156H70.1619C68.2299 55.0156 65.7211 54.371 64.1946 53.0157C61.5846 50.7098 61.3477 46.404 61.3477 43.2856C61.3477 39.522 61.652 35.1492 64.7372 32.912C66.907 31.3185 70.0607 31.2847 70.7041 31.2847H82.162V36.9121H74.1632C72.2306 36.9121 70.874 37.5905 70.0607 38.8787C69.2463 40.2003 69.2126 41.8279 69.2126 43.1496C69.2126 44.4378 69.2463 46.1 70.0945 47.489C70.9423 48.8119 72.1283 49.1163 73.4165 49.1163H75.7221C76.1286 49.1163 76.6374 49.0826 77.0105 48.7436C77.3832 48.3706 77.4181 47.8283 77.4181 47.3542V42.4725H85.0799V51.4556Z" fill="white"/>
</g>
<mask id="mask4_1178_5507" style="mask-type:luminance" maskUnits="userSpaceOnUse" x="84" y="31" width="24" height="25">
<path d="M92.6517 55.0156V37.1828H84.1758V31.2847H107.998V37.1828H100.314V55.0156H92.6517Z" fill="white"/>
</mask>
<g mask="url(#mask4_1178_5507)">
<path d="M92.6517 55.0156V37.1828H84.1758V31.2847H107.998V37.1828H100.314V55.0156H92.6517Z" fill="white"/>
</g>
<mask id="mask5_1178_5507" style="mask-type:luminance" maskUnits="userSpaceOnUse" x="11" y="-1" width="24" height="52">
<path d="M34.7693 47.9957C29.737 45.2034 23.8808 38.1042 19.736 29.8113C13.6731 17.6819 12.0022 5.24927 17.4523 2.52551C19.934 1.28521 24.3955 2.58735 27.8119 5.08623C23.2909 0.852795 18.8384 -1.02158 15.7025 0.54565C9.90285 3.44448 10.8023 16.9999 17.7115 30.823C22.6281 40.6591 29.2617 47.9753 34.7693 50.3359V47.9957Z" fill="white"/>
</mask>
<g mask="url(#mask5_1178_5507)">
<path d="M34.7693 47.9957C29.737 45.2034 23.8808 38.1042 19.736 29.8113C13.6731 17.6819 12.0022 5.24927 17.4523 2.52551C19.934 1.28521 24.3955 2.58735 27.8119 5.08623C23.2909 0.852795 18.8384 -1.02158 15.7025 0.54565C9.90285 3.44448 10.8023 16.9999 17.7115 30.823C22.6281 40.6591 29.2617 47.9753 34.7693 50.3359V47.9957Z" fill="#F36717"/>
</g>
<mask id="mask6_1178_5507" style="mask-type:luminance" maskUnits="userSpaceOnUse" x="0" y="19" width="62" height="31">
<path d="M28.0316 25.753C42.9334 20.8978 58.1264 23.4057 60.0138 29.1989C60.0844 29.416 62.3037 26.5448 61.7172 24.7446C59.7089 18.5803 44.3133 18.0684 27.3303 23.6012C10.3478 29.134 -1.79135 38.6166 0.217345 44.7809C1.30335 48.1143 6.30776 49.7913 13.3565 49.7573C8.62113 49.2612 5.3263 47.6704 4.46672 45.0327C2.57927 39.2398 13.1297 30.6078 28.0316 25.753Z" fill="white"/>
</mask>
<g mask="url(#mask6_1178_5507)">
<path d="M28.0316 25.753C42.9334 20.8978 58.1264 23.4057 60.0138 29.1989C60.0844 29.416 62.3037 26.5448 61.7172 24.7446C59.7089 18.5803 44.3133 18.0684 27.3303 23.6012C10.3478 29.134 -1.79135 38.6166 0.217345 44.7809C1.30335 48.1143 6.30776 49.7913 13.3565 49.7573C8.62113 49.2612 5.3263 47.6704 4.46672 45.0327C2.57927 39.2398 13.1297 30.6078 28.0316 25.753Z" fill="#F36717"/>
</g>
</g>
<defs>
<clipPath id="clip0_1178_5507">
<rect width="108" height="65" fill="white"/>
</clipPath>
</defs>
</svg>
