<svg width="32" height="32" viewBox="0 0 32 32" fill="none" xmlns="http://www.w3.org/2000/svg">
<path fill-rule="evenodd" clip-rule="evenodd" d="M16 0C11.6547 0 11.1093 0.0186667 9.40267 0.096C6.92933 0.209333 4.47333 0.897333 2.68533 2.68533C0.890667 4.48 0.209333 6.93067 0.096 9.40267C0.0186667 11.1093 0 11.6547 0 16C0 20.3453 0.0186667 20.8907 0.096 22.5973C0.209333 25.068 0.9 27.5307 2.68533 29.3147C4.47867 31.108 6.93333 31.7907 9.40267 31.904C11.1093 31.9813 11.6547 32 16 32C20.3453 32 20.8907 31.9813 22.5973 31.904C25.0693 31.7907 27.528 31.1013 29.3147 29.3147C31.1107 27.5187 31.7907 25.0693 31.904 22.5973C31.9813 20.8907 32 20.3453 32 16C32 11.6547 31.9813 11.1093 31.904 9.40267C31.7907 6.92933 31.1013 4.472 29.3147 2.68533C27.524 0.894666 25.0627 0.208 22.5973 0.096C20.8907 0.0186667 20.3453 0 16 0ZM24.0333 9.75163C23.7786 12.4358 22.6721 18.9517 22.1104 21.9585C21.8726 23.232 21.4029 23.6579 20.9501 23.6989C20.1698 23.7706 19.5383 23.3205 18.8356 22.8197C18.6501 22.6875 18.4597 22.5518 18.2602 22.4212C17.4742 21.9061 16.8679 21.4932 16.2586 21.0783C15.7097 20.7045 15.1583 20.329 14.471 19.8757C13.0278 18.9246 13.6318 18.3424 14.437 17.5662C14.5674 17.4406 14.703 17.3099 14.836 17.1717C14.8958 17.1095 15.189 16.8369 15.6019 16.453C16.9181 15.229 19.4507 12.8739 19.5153 12.6014C19.5252 12.5561 19.5365 12.3891 19.4361 12.3014C19.3356 12.2137 19.1899 12.2434 19.0852 12.2674C18.9352 12.3014 16.5481 13.8791 11.9226 17.0005C11.2448 17.466 10.6307 17.6924 10.0803 17.6811C9.47472 17.6684 8.30878 17.3387 7.44141 17.0557C7.31513 17.0147 7.19192 16.9759 7.07294 16.9385C6.19071 16.6611 5.54137 16.4569 5.6062 15.9407C5.6444 15.6351 6.06465 15.3223 6.86835 15.0026C11.8179 12.8462 15.119 11.4241 16.7703 10.7364C21.4864 8.7753 22.4655 8.43429 23.1051 8.42297C23.906 8.41165 24.0984 9.07244 24.0333 9.75163Z" fill="black"/>
</svg>
