<svg width="168" height="147" viewBox="0 0 168 147" fill="none" xmlns="http://www.w3.org/2000/svg">
<mask id="mask0_723_1300" style="mask-type:luminance" maskUnits="userSpaceOnUse" x="21" y="26" width="50" height="81">
<path d="M31.3746 101.942C23.0109 97.9022 23.7097 79.1423 32.9364 60.0416C42.1626 40.9407 57.0196 25.7476 65.3838 29.7878C69.192 31.6273 70.5185 39.5082 70.6194 46.0938C71.6181 36.4865 69.7965 29.2355 64.9839 26.9109C56.0836 22.6118 40.3448 36.7732 29.8298 58.5411C19.3149 80.3089 18.0059 101.441 26.9063 105.74C31.7189 108.065 38.5312 104.984 45.4356 98.2295C40.2147 102.244 35.1833 103.782 31.3746 101.942Z" fill="white"/>
</mask>
<g mask="url(#mask0_723_1300)">
<path d="M31.3746 101.942C23.0109 97.9022 23.7097 79.1423 32.9364 60.0416C42.1626 40.9407 57.0196 25.7476 65.3838 29.7878C69.192 31.6273 70.5185 39.5082 70.6194 46.0938C71.6181 36.4865 69.7965 29.2355 64.9839 26.9109C56.0836 22.6118 40.3448 36.7732 29.8298 58.5411C19.3149 80.3089 18.0059 101.441 26.9063 105.74C31.7189 108.065 38.5312 104.984 45.4356 98.2295C40.2147 102.244 35.1833 103.782 31.3746 101.942Z" fill="#F36717"/>
</g>
<mask id="mask1_723_1300" style="mask-type:luminance" maskUnits="userSpaceOnUse" x="40" y="64" width="13" height="13">
<path d="M52.5947 68.7511C53.7019 72.0119 51.9558 75.5522 48.6951 76.6594C45.4349 77.7666 41.894 76.0209 40.7868 72.7597C39.6796 69.4991 41.4258 65.9586 44.6865 64.8515C47.9472 63.7443 51.488 65.4905 52.5947 68.7511Z" fill="white"/>
</mask>
<g mask="url(#mask1_723_1300)">
<path d="M52.5947 68.7511C53.7019 72.0119 51.9558 75.5522 48.6951 76.6594C45.4349 77.7666 41.894 76.0209 40.7868 72.7597C39.6796 69.4991 41.4258 65.9586 44.6865 64.8515C47.9472 63.7443 51.488 65.4905 52.5947 68.7511Z" fill="#F36717"/>
</g>
<mask id="mask2_723_1300" style="mask-type:luminance" maskUnits="userSpaceOnUse" x="60" y="68" width="33" height="37">
<path d="M66.5666 104.875C65.0684 104.875 63.5686 104.772 62.1732 103.634C60.5195 102.239 60.5195 100.792 60.5195 99.0863V74.2774C60.5195 72.8822 60.7266 71.384 62.0705 70.1429C63.4143 68.9014 65.1713 68.6963 66.4638 68.6963H92.4609V77.483H74.5777C73.9061 77.483 73.1823 77.6367 72.7697 77.9998C72.201 78.4638 72.201 79.2909 72.201 79.7563V82.496H91.9436V90.351H72.201V94.2803C72.201 95.0033 72.46 95.4172 72.7184 95.6228C73.2866 96.1402 74.2165 96.0887 74.9408 96.0887H92.6166V104.875H66.5666Z" fill="white"/>
</mask>
<g mask="url(#mask2_723_1300)">
<path d="M66.5666 104.875C65.0684 104.875 63.5686 104.772 62.1732 103.634C60.5195 102.239 60.5195 100.792 60.5195 99.0863V74.2774C60.5195 72.8822 60.7266 71.384 62.0705 70.1429C63.4143 68.9014 65.1713 68.6963 66.4638 68.6963H92.4609V77.483H74.5777C73.9061 77.483 73.1823 77.6367 72.7697 77.9998C72.201 78.4638 72.201 79.2909 72.201 79.7563V82.496H91.9436V90.351H72.201V94.2803C72.201 95.0033 72.46 95.4172 72.7184 95.6228C73.2866 96.1402 74.2165 96.0887 74.9408 96.0887H92.6166V104.875H66.5666Z" fill="#F36717"/>
</g>
<mask id="mask3_723_1300" style="mask-type:luminance" maskUnits="userSpaceOnUse" x="95" y="68" width="37" height="37">
<path d="M131.382 99.4475C131.382 101.826 130.245 103.118 129.626 103.634C128.694 104.41 127.248 104.875 125.747 104.875H108.64C105.695 104.875 101.87 103.892 99.5432 101.826C95.5643 98.3106 95.2031 91.7463 95.2031 86.9921C95.2031 81.2544 95.6672 74.5878 100.37 71.1771C103.678 68.7477 108.486 68.6963 109.467 68.6963H126.934V77.2755H114.74C111.794 77.2755 109.726 78.3097 108.486 80.2736C107.244 82.2885 107.193 84.7698 107.193 86.7847C107.193 88.7487 107.244 91.2827 108.537 93.4004C109.83 95.4172 111.638 95.8812 113.602 95.8812H117.117C117.736 95.8812 118.512 95.8298 119.081 95.313C119.649 94.7443 119.702 93.9177 119.702 93.1948V85.7525H131.382V99.4475Z" fill="white"/>
</mask>
<g mask="url(#mask3_723_1300)">
<path d="M131.382 99.4475C131.382 101.826 130.245 103.118 129.626 103.634C128.694 104.41 127.248 104.875 125.747 104.875H108.64C105.695 104.875 101.87 103.892 99.5432 101.826C95.5643 98.3106 95.2031 91.7463 95.2031 86.9921C95.2031 81.2544 95.6672 74.5878 100.37 71.1771C103.678 68.7477 108.486 68.6963 109.467 68.6963H126.934V77.2755H114.74C111.794 77.2755 109.726 78.3097 108.486 80.2736C107.244 82.2885 107.193 84.7698 107.193 86.7847C107.193 88.7487 107.244 91.2827 108.537 93.4004C109.83 95.4172 111.638 95.8812 113.602 95.8812H117.117C117.736 95.8812 118.512 95.8298 119.081 95.313C119.649 94.7443 119.702 93.9177 119.702 93.1948V85.7525H131.382V99.4475Z" fill="#F36717"/>
</g>
<mask id="mask4_723_1300" style="mask-type:luminance" maskUnits="userSpaceOnUse" x="130" y="68" width="37" height="37">
<path d="M142.925 104.875V77.6881H130.004V68.6963H166.32V77.6881H154.606V104.875H142.925Z" fill="white"/>
</mask>
<g mask="url(#mask4_723_1300)">
<path d="M142.925 104.875V77.6881H130.004V68.6963H166.32V77.6881H154.606V104.875H142.925Z" fill="#F36717"/>
</g>
<mask id="mask5_723_1300" style="mask-type:luminance" maskUnits="userSpaceOnUse" x="19" y="21" width="36" height="77">
<path d="M54.683 94.1764C47.0114 89.9194 38.0837 79.0964 31.7651 66.4534C22.5223 47.9618 19.9751 29.0077 28.2836 24.8552C32.0669 22.9643 38.8683 24.9495 44.0766 28.7591C37.1845 22.3051 30.3966 19.4475 25.6161 21.8368C16.7747 26.2562 18.1459 46.9221 28.6787 67.9958C36.174 82.9914 46.2867 94.1453 54.683 97.7441V94.1764Z" fill="white"/>
</mask>
<g mask="url(#mask5_723_1300)">
<path d="M54.683 94.1764C47.0114 89.9194 38.0837 79.0964 31.7651 66.4534C22.5223 47.9618 19.9751 29.0077 28.2836 24.8552C32.0669 22.9643 38.8683 24.9495 44.0766 28.7591C37.1845 22.3051 30.3966 19.4475 25.6161 21.8368C16.7747 26.2562 18.1459 46.9221 28.6787 67.9958C36.174 82.9914 46.2867 94.1453 54.683 97.7441V94.1764Z" fill="#F36717"/>
</g>
<mask id="mask6_723_1300" style="mask-type:luminance" maskUnits="userSpaceOnUse" x="1" y="51" width="95" height="46">
<path d="M44.4132 60.2689C67.1307 52.867 90.2921 56.6903 93.1694 65.5223C93.2769 65.8533 96.6602 61.4761 95.7662 58.7316C92.7045 49.3338 69.2343 48.5534 43.3441 56.9884C17.4546 65.4233 -1.05118 79.88 2.01103 89.2778C3.66661 94.3596 11.2957 96.9163 22.0413 96.8645C14.8224 96.1081 9.79951 93.6829 8.4891 89.6616C5.61173 80.8301 21.6957 67.6702 44.4132 60.2689Z" fill="white"/>
</mask>
<g mask="url(#mask6_723_1300)">
<path d="M44.4132 60.2689C67.1307 52.867 90.2921 56.6903 93.1694 65.5223C93.2769 65.8533 96.6602 61.4761 95.7662 58.7316C92.7045 49.3338 69.2343 48.5534 43.3441 56.9884C17.4546 65.4233 -1.05118 79.88 2.01103 89.2778C3.66661 94.3596 11.2957 96.9163 22.0413 96.8645C14.8224 96.1081 9.79951 93.6829 8.4891 89.6616C5.61173 80.8301 21.6957 67.6702 44.4132 60.2689Z" fill="#F36717"/>
</g>
</svg>
